<mxfile host="app.diagrams.net" modified="2023-04-20T19:41:11.718Z" agent="Mozilla/5.0 (Windows NT 10.0; Win64; x64) AppleWebKit/537.36 (KHTML, like Gecko) Chrome/112.0.0.0 Safari/537.36" etag="uB9lA-Qy00OPW-fhoHMS" version="21.2.1" type="device">
  <diagram name="Sayfa -1" id="_XDM3-Csm9u_s2XKqnAF">
    <mxGraphModel dx="1500" dy="1942" grid="1" gridSize="10" guides="1" tooltips="1" connect="1" arrows="1" fold="1" page="1" pageScale="1" pageWidth="827" pageHeight="1169" math="0" shadow="0">
      <root>
        <mxCell id="0" />
        <mxCell id="1" parent="0" />
        <mxCell id="tSz3dCy00aF6PcJnhEde-1" value="Akademisyen" style="swimlane;fontStyle=1;childLayout=stackLayout;horizontal=1;startSize=30;horizontalStack=0;resizeParent=1;resizeParentMax=0;resizeLast=0;collapsible=1;marginBottom=0;whiteSpace=wrap;html=1;fillColor=#FAE5C7;strokeColor=#0F8B8D;rounded=0;labelBackgroundColor=none;fontColor=#143642;strokeWidth=3;" parent="1" vertex="1">
          <mxGeometry x="80" y="125" width="160" height="300" as="geometry" />
        </mxCell>
        <mxCell id="SzbewIKGu9BWc71QVHrr-1" value="id" style="text;strokeColor=none;fillColor=none;align=left;verticalAlign=middle;spacingLeft=4;spacingRight=4;overflow=hidden;points=[[0,0.5],[1,0.5]];portConstraint=eastwest;rotatable=0;whiteSpace=wrap;html=1;fontStyle=1;rounded=0;labelBackgroundColor=none;fontColor=#143642;strokeWidth=3;" parent="tSz3dCy00aF6PcJnhEde-1" vertex="1">
          <mxGeometry y="30" width="160" height="30" as="geometry" />
        </mxCell>
        <mxCell id="tSz3dCy00aF6PcJnhEde-33" value="personel_no" style="text;strokeColor=none;fillColor=none;align=left;verticalAlign=middle;spacingLeft=4;spacingRight=4;overflow=hidden;points=[[0,0.5],[1,0.5]];portConstraint=eastwest;rotatable=0;whiteSpace=wrap;html=1;fontStyle=1;rounded=0;labelBackgroundColor=none;fontColor=#143642;strokeWidth=3;" parent="tSz3dCy00aF6PcJnhEde-1" vertex="1">
          <mxGeometry y="60" width="160" height="30" as="geometry" />
        </mxCell>
        <mxCell id="tSz3dCy00aF6PcJnhEde-2" value="tckn" style="text;strokeColor=none;fillColor=none;align=left;verticalAlign=middle;spacingLeft=4;spacingRight=4;overflow=hidden;points=[[0,0.5],[1,0.5]];portConstraint=eastwest;rotatable=0;whiteSpace=wrap;html=1;fontStyle=1;rounded=0;labelBackgroundColor=none;fontColor=#143642;strokeWidth=3;" parent="tSz3dCy00aF6PcJnhEde-1" vertex="1">
          <mxGeometry y="90" width="160" height="30" as="geometry" />
        </mxCell>
        <mxCell id="tSz3dCy00aF6PcJnhEde-3" value="ad" style="text;strokeColor=none;fillColor=none;align=left;verticalAlign=middle;spacingLeft=4;spacingRight=4;overflow=hidden;points=[[0,0.5],[1,0.5]];portConstraint=eastwest;rotatable=0;whiteSpace=wrap;html=1;fontStyle=1;rounded=0;labelBackgroundColor=none;fontColor=#143642;strokeWidth=3;" parent="tSz3dCy00aF6PcJnhEde-1" vertex="1">
          <mxGeometry y="120" width="160" height="30" as="geometry" />
        </mxCell>
        <mxCell id="tSz3dCy00aF6PcJnhEde-4" value="soyad" style="text;strokeColor=none;fillColor=none;align=left;verticalAlign=middle;spacingLeft=4;spacingRight=4;overflow=hidden;points=[[0,0.5],[1,0.5]];portConstraint=eastwest;rotatable=0;whiteSpace=wrap;html=1;fontStyle=1;rounded=0;labelBackgroundColor=none;fontColor=#143642;strokeWidth=3;" parent="tSz3dCy00aF6PcJnhEde-1" vertex="1">
          <mxGeometry y="150" width="160" height="30" as="geometry" />
        </mxCell>
        <mxCell id="tSz3dCy00aF6PcJnhEde-29" value="unvan" style="text;strokeColor=none;fillColor=none;align=left;verticalAlign=middle;spacingLeft=4;spacingRight=4;overflow=hidden;points=[[0,0.5],[1,0.5]];portConstraint=eastwest;rotatable=0;whiteSpace=wrap;html=1;fontStyle=1;rounded=0;labelBackgroundColor=none;fontColor=#143642;strokeWidth=3;" parent="tSz3dCy00aF6PcJnhEde-1" vertex="1">
          <mxGeometry y="180" width="160" height="30" as="geometry" />
        </mxCell>
        <mxCell id="tSz3dCy00aF6PcJnhEde-30" value="dogum_tarihi" style="text;strokeColor=none;fillColor=none;align=left;verticalAlign=middle;spacingLeft=4;spacingRight=4;overflow=hidden;points=[[0,0.5],[1,0.5]];portConstraint=eastwest;rotatable=0;whiteSpace=wrap;html=1;fontStyle=1;rounded=0;labelBackgroundColor=none;fontColor=#143642;strokeWidth=3;" parent="tSz3dCy00aF6PcJnhEde-1" vertex="1">
          <mxGeometry y="210" width="160" height="30" as="geometry" />
        </mxCell>
        <mxCell id="tSz3dCy00aF6PcJnhEde-41" value="dogum_yeri" style="text;strokeColor=none;fillColor=none;align=left;verticalAlign=middle;spacingLeft=4;spacingRight=4;overflow=hidden;points=[[0,0.5],[1,0.5]];portConstraint=eastwest;rotatable=0;whiteSpace=wrap;html=1;fontStyle=1;rounded=0;labelBackgroundColor=none;fontColor=#143642;strokeWidth=3;" parent="tSz3dCy00aF6PcJnhEde-1" vertex="1">
          <mxGeometry y="240" width="160" height="30" as="geometry" />
        </mxCell>
        <mxCell id="tSz3dCy00aF6PcJnhEde-49" value="cinsiyet" style="text;strokeColor=none;fillColor=none;align=left;verticalAlign=middle;spacingLeft=4;spacingRight=4;overflow=hidden;points=[[0,0.5],[1,0.5]];portConstraint=eastwest;rotatable=0;whiteSpace=wrap;html=1;fontStyle=1;rounded=0;labelBackgroundColor=none;fontColor=#143642;strokeWidth=3;" parent="tSz3dCy00aF6PcJnhEde-1" vertex="1">
          <mxGeometry y="270" width="160" height="30" as="geometry" />
        </mxCell>
        <mxCell id="VyGpbeNVrSqIv8t4VkZt-1" style="edgeStyle=orthogonalEdgeStyle;rounded=0;orthogonalLoop=1;jettySize=auto;html=1;exitX=0;exitY=0.25;exitDx=0;exitDy=0;entryX=0;entryY=0.5;entryDx=0;entryDy=0;endArrow=ERmany;endFill=0;labelBackgroundColor=none;strokeColor=#A8201A;fontColor=default;strokeWidth=3;startSize=12;endSize=15;" edge="1" parent="1" source="tSz3dCy00aF6PcJnhEde-5" target="tSz3dCy00aF6PcJnhEde-15">
          <mxGeometry relative="1" as="geometry">
            <Array as="points">
              <mxPoint x="290" y="43" />
              <mxPoint x="290" y="385" />
            </Array>
          </mxGeometry>
        </mxCell>
        <mxCell id="tSz3dCy00aF6PcJnhEde-5" value="Ogrenci" style="swimlane;fontStyle=1;childLayout=stackLayout;horizontal=1;startSize=30;horizontalStack=0;resizeParent=1;resizeParentMax=0;resizeLast=0;collapsible=1;marginBottom=0;whiteSpace=wrap;html=1;fillColor=#FAE5C7;strokeColor=#0F8B8D;rounded=0;labelBackgroundColor=none;fontColor=#143642;strokeWidth=3;" parent="1" vertex="1">
          <mxGeometry x="320" y="-40" width="160" height="330" as="geometry" />
        </mxCell>
        <mxCell id="SzbewIKGu9BWc71QVHrr-2" value="id" style="text;strokeColor=none;fillColor=none;align=left;verticalAlign=middle;spacingLeft=4;spacingRight=4;overflow=hidden;points=[[0,0.5],[1,0.5]];portConstraint=eastwest;rotatable=0;whiteSpace=wrap;html=1;fontStyle=1;rounded=0;labelBackgroundColor=none;fontColor=#143642;strokeWidth=3;" parent="tSz3dCy00aF6PcJnhEde-5" vertex="1">
          <mxGeometry y="30" width="160" height="30" as="geometry" />
        </mxCell>
        <mxCell id="tSz3dCy00aF6PcJnhEde-32" value="ogrenci_no" style="text;strokeColor=none;fillColor=none;align=left;verticalAlign=middle;spacingLeft=4;spacingRight=4;overflow=hidden;points=[[0,0.5],[1,0.5]];portConstraint=eastwest;rotatable=0;whiteSpace=wrap;html=1;fontStyle=1;rounded=0;labelBackgroundColor=none;fontColor=#143642;strokeWidth=3;" parent="tSz3dCy00aF6PcJnhEde-5" vertex="1">
          <mxGeometry y="60" width="160" height="30" as="geometry" />
        </mxCell>
        <mxCell id="tSz3dCy00aF6PcJnhEde-6" value="tckn" style="text;strokeColor=none;fillColor=none;align=left;verticalAlign=middle;spacingLeft=4;spacingRight=4;overflow=hidden;points=[[0,0.5],[1,0.5]];portConstraint=eastwest;rotatable=0;whiteSpace=wrap;html=1;fontStyle=1;rounded=0;labelBackgroundColor=none;fontColor=#143642;strokeWidth=3;" parent="tSz3dCy00aF6PcJnhEde-5" vertex="1">
          <mxGeometry y="90" width="160" height="30" as="geometry" />
        </mxCell>
        <mxCell id="tSz3dCy00aF6PcJnhEde-7" value="ad" style="text;strokeColor=none;fillColor=none;align=left;verticalAlign=middle;spacingLeft=4;spacingRight=4;overflow=hidden;points=[[0,0.5],[1,0.5]];portConstraint=eastwest;rotatable=0;whiteSpace=wrap;html=1;fontStyle=1;rounded=0;labelBackgroundColor=none;fontColor=#143642;strokeWidth=3;" parent="tSz3dCy00aF6PcJnhEde-5" vertex="1">
          <mxGeometry y="120" width="160" height="30" as="geometry" />
        </mxCell>
        <mxCell id="tSz3dCy00aF6PcJnhEde-8" value="soyad" style="text;strokeColor=none;fillColor=none;align=left;verticalAlign=middle;spacingLeft=4;spacingRight=4;overflow=hidden;points=[[0,0.5],[1,0.5]];portConstraint=eastwest;rotatable=0;whiteSpace=wrap;html=1;fontStyle=1;rounded=0;labelBackgroundColor=none;fontColor=#143642;strokeWidth=3;" parent="tSz3dCy00aF6PcJnhEde-5" vertex="1">
          <mxGeometry y="150" width="160" height="30" as="geometry" />
        </mxCell>
        <mxCell id="tSz3dCy00aF6PcJnhEde-24" value="dogum_tarihi" style="text;strokeColor=none;fillColor=none;align=left;verticalAlign=middle;spacingLeft=4;spacingRight=4;overflow=hidden;points=[[0,0.5],[1,0.5]];portConstraint=eastwest;rotatable=0;whiteSpace=wrap;html=1;fontStyle=1;rounded=0;labelBackgroundColor=none;fontColor=#143642;strokeWidth=3;" parent="tSz3dCy00aF6PcJnhEde-5" vertex="1">
          <mxGeometry y="180" width="160" height="30" as="geometry" />
        </mxCell>
        <mxCell id="tSz3dCy00aF6PcJnhEde-40" value="dogum_yeri" style="text;strokeColor=none;fillColor=none;align=left;verticalAlign=middle;spacingLeft=4;spacingRight=4;overflow=hidden;points=[[0,0.5],[1,0.5]];portConstraint=eastwest;rotatable=0;whiteSpace=wrap;html=1;fontStyle=1;rounded=0;labelBackgroundColor=none;fontColor=#143642;strokeWidth=3;" parent="tSz3dCy00aF6PcJnhEde-5" vertex="1">
          <mxGeometry y="210" width="160" height="30" as="geometry" />
        </mxCell>
        <mxCell id="tSz3dCy00aF6PcJnhEde-27" value="cinsiyet" style="text;strokeColor=none;fillColor=none;align=left;verticalAlign=middle;spacingLeft=4;spacingRight=4;overflow=hidden;points=[[0,0.5],[1,0.5]];portConstraint=eastwest;rotatable=0;whiteSpace=wrap;html=1;fontStyle=1;rounded=0;labelBackgroundColor=none;fontColor=#143642;strokeWidth=3;" parent="tSz3dCy00aF6PcJnhEde-5" vertex="1">
          <mxGeometry y="240" width="160" height="30" as="geometry" />
        </mxCell>
        <mxCell id="tSz3dCy00aF6PcJnhEde-28" value="sinifi" style="text;strokeColor=none;fillColor=none;align=left;verticalAlign=middle;spacingLeft=4;spacingRight=4;overflow=hidden;points=[[0,0.5],[1,0.5]];portConstraint=eastwest;rotatable=0;whiteSpace=wrap;html=1;fontStyle=1;rounded=0;labelBackgroundColor=none;fontColor=#143642;strokeWidth=3;" parent="tSz3dCy00aF6PcJnhEde-5" vertex="1">
          <mxGeometry y="270" width="160" height="30" as="geometry" />
        </mxCell>
        <mxCell id="tSz3dCy00aF6PcJnhEde-48" value="rfid_kodu" style="text;strokeColor=none;fillColor=none;align=left;verticalAlign=middle;spacingLeft=4;spacingRight=4;overflow=hidden;points=[[0,0.5],[1,0.5]];portConstraint=eastwest;rotatable=0;whiteSpace=wrap;html=1;fontStyle=1;rounded=0;labelBackgroundColor=none;fontColor=#143642;strokeWidth=3;" parent="tSz3dCy00aF6PcJnhEde-5" vertex="1">
          <mxGeometry y="300" width="160" height="30" as="geometry" />
        </mxCell>
        <mxCell id="tSz3dCy00aF6PcJnhEde-9" value="Ders" style="swimlane;fontStyle=1;childLayout=stackLayout;horizontal=1;startSize=30;horizontalStack=0;resizeParent=1;resizeParentMax=0;resizeLast=0;collapsible=1;marginBottom=0;whiteSpace=wrap;html=1;fillColor=#FAE5C7;strokeColor=#0F8B8D;rounded=0;labelBackgroundColor=none;fontColor=#143642;strokeWidth=3;" parent="1" vertex="1">
          <mxGeometry x="560" y="100" width="160" height="300" as="geometry">
            <mxRectangle x="560" y="120" width="70" height="30" as="alternateBounds" />
          </mxGeometry>
        </mxCell>
        <mxCell id="SzbewIKGu9BWc71QVHrr-3" value="id" style="text;strokeColor=none;fillColor=none;align=left;verticalAlign=middle;spacingLeft=4;spacingRight=4;overflow=hidden;points=[[0,0.5],[1,0.5]];portConstraint=eastwest;rotatable=0;whiteSpace=wrap;html=1;fontStyle=1;rounded=0;labelBackgroundColor=none;fontColor=#143642;strokeWidth=3;" parent="tSz3dCy00aF6PcJnhEde-9" vertex="1">
          <mxGeometry y="30" width="160" height="30" as="geometry" />
        </mxCell>
        <mxCell id="tSz3dCy00aF6PcJnhEde-10" value="ders_kodu" style="text;strokeColor=none;fillColor=none;align=left;verticalAlign=middle;spacingLeft=4;spacingRight=4;overflow=hidden;points=[[0,0.5],[1,0.5]];portConstraint=eastwest;rotatable=0;whiteSpace=wrap;html=1;fontStyle=1;rounded=0;labelBackgroundColor=none;fontColor=#143642;strokeWidth=3;" parent="tSz3dCy00aF6PcJnhEde-9" vertex="1">
          <mxGeometry y="60" width="160" height="30" as="geometry" />
        </mxCell>
        <mxCell id="tSz3dCy00aF6PcJnhEde-11" value="ders_adi" style="text;strokeColor=none;fillColor=none;align=left;verticalAlign=middle;spacingLeft=4;spacingRight=4;overflow=hidden;points=[[0,0.5],[1,0.5]];portConstraint=eastwest;rotatable=0;whiteSpace=wrap;html=1;fontStyle=1;rounded=0;labelBackgroundColor=none;fontColor=#143642;strokeWidth=3;" parent="tSz3dCy00aF6PcJnhEde-9" vertex="1">
          <mxGeometry y="90" width="160" height="30" as="geometry" />
        </mxCell>
        <mxCell id="tSz3dCy00aF6PcJnhEde-12" value="personel_no" style="text;strokeColor=none;fillColor=none;align=left;verticalAlign=middle;spacingLeft=4;spacingRight=4;overflow=hidden;points=[[0,0.5],[1,0.5]];portConstraint=eastwest;rotatable=0;whiteSpace=wrap;html=1;fontStyle=1;rounded=0;labelBackgroundColor=none;fontColor=#143642;strokeWidth=3;" parent="tSz3dCy00aF6PcJnhEde-9" vertex="1">
          <mxGeometry y="120" width="160" height="30" as="geometry" />
        </mxCell>
        <mxCell id="tSz3dCy00aF6PcJnhEde-37" value="ders_kredi" style="text;strokeColor=none;fillColor=none;align=left;verticalAlign=middle;spacingLeft=4;spacingRight=4;overflow=hidden;points=[[0,0.5],[1,0.5]];portConstraint=eastwest;rotatable=0;whiteSpace=wrap;html=1;fontStyle=1;rounded=0;labelBackgroundColor=none;fontColor=#143642;strokeWidth=3;" parent="tSz3dCy00aF6PcJnhEde-9" vertex="1">
          <mxGeometry y="150" width="160" height="30" as="geometry" />
        </mxCell>
        <mxCell id="yB-rztcEehSW4XwJmEQQ-1" value="haftalik_saat" style="text;strokeColor=none;fillColor=none;align=left;verticalAlign=middle;spacingLeft=4;spacingRight=4;overflow=hidden;points=[[0,0.5],[1,0.5]];portConstraint=eastwest;rotatable=0;whiteSpace=wrap;html=1;fontStyle=1;rounded=0;labelBackgroundColor=none;fontColor=#143642;strokeWidth=3;" parent="tSz3dCy00aF6PcJnhEde-9" vertex="1">
          <mxGeometry y="180" width="160" height="30" as="geometry" />
        </mxCell>
        <mxCell id="tSz3dCy00aF6PcJnhEde-23" value="sinif_kodu" style="text;strokeColor=none;fillColor=none;align=left;verticalAlign=middle;spacingLeft=4;spacingRight=4;overflow=hidden;points=[[0,0.5],[1,0.5]];portConstraint=eastwest;rotatable=0;whiteSpace=wrap;html=1;fontStyle=1;rounded=0;labelBackgroundColor=none;fontColor=#143642;strokeWidth=3;" parent="tSz3dCy00aF6PcJnhEde-9" vertex="1">
          <mxGeometry y="210" width="160" height="30" as="geometry" />
        </mxCell>
        <mxCell id="tSz3dCy00aF6PcJnhEde-34" value="ders_gunu" style="text;strokeColor=none;fillColor=none;align=left;verticalAlign=middle;spacingLeft=4;spacingRight=4;overflow=hidden;points=[[0,0.5],[1,0.5]];portConstraint=eastwest;rotatable=0;whiteSpace=wrap;html=1;fontStyle=1;rounded=0;labelBackgroundColor=none;fontColor=#143642;strokeWidth=3;" parent="tSz3dCy00aF6PcJnhEde-9" vertex="1">
          <mxGeometry y="240" width="160" height="30" as="geometry" />
        </mxCell>
        <mxCell id="tSz3dCy00aF6PcJnhEde-35" value="ders_saati" style="text;strokeColor=none;fillColor=none;align=left;verticalAlign=middle;spacingLeft=4;spacingRight=4;overflow=hidden;points=[[0,0.5],[1,0.5]];portConstraint=eastwest;rotatable=0;whiteSpace=wrap;html=1;fontStyle=1;rounded=0;labelBackgroundColor=none;fontColor=#143642;strokeWidth=3;" parent="tSz3dCy00aF6PcJnhEde-9" vertex="1">
          <mxGeometry y="270" width="160" height="30" as="geometry" />
        </mxCell>
        <mxCell id="tSz3dCy00aF6PcJnhEde-13" value="Yoklama" style="swimlane;fontStyle=1;childLayout=stackLayout;horizontal=1;startSize=30;horizontalStack=0;resizeParent=1;resizeParentMax=0;resizeLast=0;collapsible=1;marginBottom=0;whiteSpace=wrap;html=1;fillColor=#FAE5C7;fontColor=#143642;strokeColor=#0F8B8D;rounded=0;labelBackgroundColor=none;strokeWidth=3;" parent="1" vertex="1">
          <mxGeometry x="320" y="310" width="160" height="180" as="geometry" />
        </mxCell>
        <mxCell id="tSz3dCy00aF6PcJnhEde-14" value="id" style="text;strokeColor=none;fillColor=none;align=left;verticalAlign=middle;spacingLeft=4;spacingRight=4;overflow=hidden;points=[[0,0.5],[1,0.5]];portConstraint=eastwest;rotatable=0;whiteSpace=wrap;html=1;fontStyle=1;rounded=0;labelBackgroundColor=none;fontColor=#143642;strokeWidth=3;" parent="tSz3dCy00aF6PcJnhEde-13" vertex="1">
          <mxGeometry y="30" width="160" height="30" as="geometry" />
        </mxCell>
        <mxCell id="tSz3dCy00aF6PcJnhEde-15" value="ogrenci_no" style="text;strokeColor=none;fillColor=none;align=left;verticalAlign=middle;spacingLeft=4;spacingRight=4;overflow=hidden;points=[[0,0.5],[1,0.5]];portConstraint=eastwest;rotatable=0;whiteSpace=wrap;html=1;fontStyle=1;rounded=0;labelBackgroundColor=none;fontColor=#143642;strokeWidth=3;" parent="tSz3dCy00aF6PcJnhEde-13" vertex="1">
          <mxGeometry y="60" width="160" height="30" as="geometry" />
        </mxCell>
        <mxCell id="tSz3dCy00aF6PcJnhEde-16" value="ders_kodu" style="text;strokeColor=none;fillColor=none;align=left;verticalAlign=middle;spacingLeft=4;spacingRight=4;overflow=hidden;points=[[0,0.5],[1,0.5]];portConstraint=eastwest;rotatable=0;whiteSpace=wrap;html=1;fontStyle=1;rounded=0;labelBackgroundColor=none;fontColor=#143642;strokeWidth=3;" parent="tSz3dCy00aF6PcJnhEde-13" vertex="1">
          <mxGeometry y="90" width="160" height="30" as="geometry" />
        </mxCell>
        <mxCell id="tSz3dCy00aF6PcJnhEde-26" value="ders_tarihi" style="text;strokeColor=none;fillColor=none;align=left;verticalAlign=middle;spacingLeft=4;spacingRight=4;overflow=hidden;points=[[0,0.5],[1,0.5]];portConstraint=eastwest;rotatable=0;whiteSpace=wrap;html=1;fontStyle=1;rounded=0;labelBackgroundColor=none;fontColor=#143642;strokeWidth=3;" parent="tSz3dCy00aF6PcJnhEde-13" vertex="1">
          <mxGeometry y="120" width="160" height="30" as="geometry" />
        </mxCell>
        <mxCell id="GQ14c15T7XH0u08p2fNt-1" value="katilma_durumu" style="text;strokeColor=none;fillColor=none;align=left;verticalAlign=middle;spacingLeft=4;spacingRight=4;overflow=hidden;points=[[0,0.5],[1,0.5]];portConstraint=eastwest;rotatable=0;whiteSpace=wrap;html=1;fontStyle=1;rounded=0;labelBackgroundColor=none;fontColor=#143642;strokeWidth=3;" parent="tSz3dCy00aF6PcJnhEde-13" vertex="1">
          <mxGeometry y="150" width="160" height="30" as="geometry" />
        </mxCell>
        <mxCell id="tSz3dCy00aF6PcJnhEde-19" value="Sinif" style="swimlane;fontStyle=1;childLayout=stackLayout;horizontal=1;startSize=30;horizontalStack=0;resizeParent=1;resizeParentMax=0;resizeLast=0;collapsible=1;marginBottom=0;whiteSpace=wrap;html=1;fillColor=#FAE5C7;strokeColor=#0F8B8D;rounded=0;labelBackgroundColor=none;fontColor=#143642;strokeWidth=3;" parent="1" vertex="1">
          <mxGeometry x="560" y="434" width="160" height="150" as="geometry" />
        </mxCell>
        <mxCell id="SzbewIKGu9BWc71QVHrr-4" value="id" style="text;strokeColor=none;fillColor=none;align=left;verticalAlign=middle;spacingLeft=4;spacingRight=4;overflow=hidden;points=[[0,0.5],[1,0.5]];portConstraint=eastwest;rotatable=0;whiteSpace=wrap;html=1;fontStyle=1;rounded=0;labelBackgroundColor=none;fontColor=#143642;strokeWidth=3;" parent="tSz3dCy00aF6PcJnhEde-19" vertex="1">
          <mxGeometry y="30" width="160" height="30" as="geometry" />
        </mxCell>
        <mxCell id="tSz3dCy00aF6PcJnhEde-20" value="sinif_kodu" style="text;align=left;verticalAlign=middle;spacingLeft=4;spacingRight=4;overflow=hidden;points=[[0,0.5],[1,0.5]];portConstraint=eastwest;rotatable=0;whiteSpace=wrap;html=1;fontStyle=1;rounded=0;labelBackgroundColor=none;fontColor=#143642;strokeWidth=3;" parent="tSz3dCy00aF6PcJnhEde-19" vertex="1">
          <mxGeometry y="60" width="160" height="30" as="geometry" />
        </mxCell>
        <mxCell id="tSz3dCy00aF6PcJnhEde-36" value="sinif_adi" style="text;strokeColor=none;fillColor=none;align=left;verticalAlign=middle;spacingLeft=4;spacingRight=4;overflow=hidden;points=[[0,0.5],[1,0.5]];portConstraint=eastwest;rotatable=0;whiteSpace=wrap;html=1;fontStyle=1;rounded=0;labelBackgroundColor=none;fontColor=#143642;strokeWidth=3;" parent="tSz3dCy00aF6PcJnhEde-19" vertex="1">
          <mxGeometry y="90" width="160" height="30" as="geometry" />
        </mxCell>
        <mxCell id="tSz3dCy00aF6PcJnhEde-21" value="sinif_kapasitesi" style="text;strokeColor=none;fillColor=none;align=left;verticalAlign=middle;spacingLeft=4;spacingRight=4;overflow=hidden;points=[[0,0.5],[1,0.5]];portConstraint=eastwest;rotatable=0;whiteSpace=wrap;html=1;fontStyle=1;rounded=0;labelBackgroundColor=none;fontColor=#143642;strokeWidth=3;" parent="tSz3dCy00aF6PcJnhEde-19" vertex="1">
          <mxGeometry y="120" width="160" height="30" as="geometry" />
        </mxCell>
        <mxCell id="tSz3dCy00aF6PcJnhEde-42" value="Cihaz" style="swimlane;fontStyle=1;childLayout=stackLayout;horizontal=1;startSize=30;horizontalStack=0;resizeParent=1;resizeParentMax=0;resizeLast=0;collapsible=1;marginBottom=0;whiteSpace=wrap;html=1;fillColor=#FAE5C7;strokeColor=#0F8B8D;rounded=0;labelBackgroundColor=none;fontColor=#143642;strokeWidth=3;" parent="1" vertex="1">
          <mxGeometry x="80" y="440" width="160" height="120" as="geometry" />
        </mxCell>
        <mxCell id="tSz3dCy00aF6PcJnhEde-43" value="id" style="text;strokeColor=none;fillColor=none;align=left;verticalAlign=middle;spacingLeft=4;spacingRight=4;overflow=hidden;points=[[0,0.5],[1,0.5]];portConstraint=eastwest;rotatable=0;whiteSpace=wrap;html=1;fontStyle=1;rounded=0;labelBackgroundColor=none;fontColor=#143642;strokeWidth=3;" parent="tSz3dCy00aF6PcJnhEde-42" vertex="1">
          <mxGeometry y="30" width="160" height="30" as="geometry" />
        </mxCell>
        <mxCell id="tSz3dCy00aF6PcJnhEde-44" value="sinif_kodu" style="text;strokeColor=none;fillColor=none;align=left;verticalAlign=middle;spacingLeft=4;spacingRight=4;overflow=hidden;points=[[0,0.5],[1,0.5]];portConstraint=eastwest;rotatable=0;whiteSpace=wrap;html=1;fontStyle=1;rounded=0;labelBackgroundColor=none;fontColor=#143642;strokeWidth=3;" parent="tSz3dCy00aF6PcJnhEde-42" vertex="1">
          <mxGeometry y="60" width="160" height="30" as="geometry" />
        </mxCell>
        <mxCell id="tSz3dCy00aF6PcJnhEde-47" value="cihaz_token" style="text;strokeColor=none;fillColor=none;align=left;verticalAlign=middle;spacingLeft=4;spacingRight=4;overflow=hidden;points=[[0,0.5],[1,0.5]];portConstraint=eastwest;rotatable=0;whiteSpace=wrap;html=1;fontStyle=1;rounded=0;labelBackgroundColor=none;fontColor=#143642;strokeWidth=3;" parent="tSz3dCy00aF6PcJnhEde-42" vertex="1">
          <mxGeometry y="90" width="160" height="30" as="geometry" />
        </mxCell>
        <mxCell id="tSz3dCy00aF6PcJnhEde-50" value="DersOgrencileri" style="swimlane;fontStyle=1;childLayout=stackLayout;horizontal=1;startSize=30;horizontalStack=0;resizeParent=1;resizeParentMax=0;resizeLast=0;collapsible=1;marginBottom=0;whiteSpace=wrap;html=1;fillColor=#FAE5C7;strokeColor=#0F8B8D;rounded=0;labelBackgroundColor=none;fontColor=#143642;strokeWidth=3;" parent="1" vertex="1">
          <mxGeometry x="560" y="-40" width="160" height="120" as="geometry" />
        </mxCell>
        <mxCell id="tSz3dCy00aF6PcJnhEde-51" value="id" style="text;strokeColor=none;fillColor=none;align=left;verticalAlign=middle;spacingLeft=4;spacingRight=4;overflow=hidden;points=[[0,0.5],[1,0.5]];portConstraint=eastwest;rotatable=0;whiteSpace=wrap;html=1;fontStyle=1;rounded=0;labelBackgroundColor=none;fontColor=#143642;strokeWidth=3;" parent="tSz3dCy00aF6PcJnhEde-50" vertex="1">
          <mxGeometry y="30" width="160" height="30" as="geometry" />
        </mxCell>
        <mxCell id="tSz3dCy00aF6PcJnhEde-52" value="ders_kodu" style="text;strokeColor=none;fillColor=none;align=left;verticalAlign=middle;spacingLeft=4;spacingRight=4;overflow=hidden;points=[[0,0.5],[1,0.5]];portConstraint=eastwest;rotatable=0;whiteSpace=wrap;html=1;fontStyle=1;rounded=0;labelBackgroundColor=none;fontColor=#143642;strokeWidth=3;" parent="tSz3dCy00aF6PcJnhEde-50" vertex="1">
          <mxGeometry y="60" width="160" height="30" as="geometry" />
        </mxCell>
        <mxCell id="tSz3dCy00aF6PcJnhEde-53" value="ogrenci_no" style="text;strokeColor=none;fillColor=none;align=left;verticalAlign=middle;spacingLeft=4;spacingRight=4;overflow=hidden;points=[[0,0.5],[1,0.5]];portConstraint=eastwest;rotatable=0;whiteSpace=wrap;html=1;fontStyle=1;rounded=0;labelBackgroundColor=none;fontColor=#143642;strokeWidth=3;" parent="tSz3dCy00aF6PcJnhEde-50" vertex="1">
          <mxGeometry y="90" width="160" height="30" as="geometry" />
        </mxCell>
        <mxCell id="tSz3dCy00aF6PcJnhEde-55" style="edgeStyle=orthogonalEdgeStyle;rounded=0;orthogonalLoop=1;jettySize=auto;html=1;entryX=0;entryY=0.555;entryDx=0;entryDy=0;fontStyle=1;labelBackgroundColor=none;strokeColor=#A8201A;fontColor=default;strokeWidth=3;exitX=0.994;exitY=0.353;exitDx=0;exitDy=0;exitPerimeter=0;entryPerimeter=0;endArrow=none;endFill=0;startSize=12;endSize=15;" parent="1" source="tSz3dCy00aF6PcJnhEde-44" target="tSz3dCy00aF6PcJnhEde-20" edge="1">
          <mxGeometry relative="1" as="geometry">
            <Array as="points">
              <mxPoint x="560" y="511" />
            </Array>
            <mxPoint x="260" y="580" as="sourcePoint" />
          </mxGeometry>
        </mxCell>
        <mxCell id="xMepBUlxYb5cDR9jj_bg-9" style="edgeStyle=orthogonalEdgeStyle;rounded=0;orthogonalLoop=1;jettySize=auto;html=1;exitX=1;exitY=0.5;exitDx=0;exitDy=0;strokeColor=#A8201A;fontColor=default;fillColor=#FAE5C7;strokeWidth=3;endArrow=none;endFill=0;labelBackgroundColor=none;startSize=12;endSize=15;" parent="1" source="LNmmJ7yhRgkjtYMrJOTG-1" edge="1">
          <mxGeometry relative="1" as="geometry">
            <mxPoint x="320" y="30" as="targetPoint" />
            <Array as="points">
              <mxPoint x="240" y="30" />
              <mxPoint x="320" y="30" />
            </Array>
          </mxGeometry>
        </mxCell>
        <mxCell id="LNmmJ7yhRgkjtYMrJOTG-1" value="User" style="swimlane;fontStyle=1;childLayout=stackLayout;horizontal=1;startSize=30;horizontalStack=0;resizeParent=1;resizeParentMax=0;resizeLast=0;collapsible=1;marginBottom=0;whiteSpace=wrap;html=1;fillColor=#FAE5C7;strokeColor=#0F8B8D;rounded=0;labelBackgroundColor=none;fontColor=#143642;strokeWidth=3;" parent="1" vertex="1">
          <mxGeometry x="80" y="-40" width="160" height="150" as="geometry" />
        </mxCell>
        <mxCell id="LNmmJ7yhRgkjtYMrJOTG-2" value="id" style="text;strokeColor=none;fillColor=none;align=left;verticalAlign=middle;spacingLeft=4;spacingRight=4;overflow=hidden;points=[[0,0.5],[1,0.5]];portConstraint=eastwest;rotatable=0;whiteSpace=wrap;html=1;fontStyle=1;rounded=0;labelBackgroundColor=none;fontColor=#143642;strokeWidth=3;" parent="LNmmJ7yhRgkjtYMrJOTG-1" vertex="1">
          <mxGeometry y="30" width="160" height="30" as="geometry" />
        </mxCell>
        <mxCell id="LNmmJ7yhRgkjtYMrJOTG-3" value="username" style="text;strokeColor=none;fillColor=none;align=left;verticalAlign=middle;spacingLeft=4;spacingRight=4;overflow=hidden;points=[[0,0.5],[1,0.5]];portConstraint=eastwest;rotatable=0;whiteSpace=wrap;html=1;fontStyle=1;rounded=0;labelBackgroundColor=none;fontColor=#143642;strokeWidth=3;" parent="LNmmJ7yhRgkjtYMrJOTG-1" vertex="1">
          <mxGeometry y="60" width="160" height="30" as="geometry" />
        </mxCell>
        <mxCell id="LNmmJ7yhRgkjtYMrJOTG-4" value="password" style="text;strokeColor=none;fillColor=none;align=left;verticalAlign=middle;spacingLeft=4;spacingRight=4;overflow=hidden;points=[[0,0.5],[1,0.5]];portConstraint=eastwest;rotatable=0;whiteSpace=wrap;html=1;fontStyle=1;rounded=0;labelBackgroundColor=none;fontColor=#143642;strokeWidth=3;" parent="LNmmJ7yhRgkjtYMrJOTG-1" vertex="1">
          <mxGeometry y="90" width="160" height="30" as="geometry" />
        </mxCell>
        <mxCell id="H-DLUYOiP7an4g8J87-J-1" value="role" style="text;strokeColor=none;fillColor=none;align=left;verticalAlign=middle;spacingLeft=4;spacingRight=4;overflow=hidden;points=[[0,0.5],[1,0.5]];portConstraint=eastwest;rotatable=0;whiteSpace=wrap;html=1;fontStyle=1;rounded=0;labelBackgroundColor=none;fontColor=#143642;strokeWidth=3;" parent="LNmmJ7yhRgkjtYMrJOTG-1" vertex="1">
          <mxGeometry y="120" width="160" height="30" as="geometry" />
        </mxCell>
        <mxCell id="xMepBUlxYb5cDR9jj_bg-1" value="CihazIstekleri" style="swimlane;fontStyle=1;childLayout=stackLayout;horizontal=1;startSize=30;horizontalStack=0;resizeParent=1;resizeParentMax=0;resizeLast=0;collapsible=1;marginBottom=0;whiteSpace=wrap;html=1;fillColor=#FAE5C7;strokeColor=#0F8B8D;rounded=0;labelBackgroundColor=none;fontColor=#143642;strokeWidth=3;" parent="1" vertex="1">
          <mxGeometry x="320" y="530" width="160" height="240" as="geometry" />
        </mxCell>
        <mxCell id="xMepBUlxYb5cDR9jj_bg-2" value="id" style="text;strokeColor=none;fillColor=none;align=left;verticalAlign=middle;spacingLeft=4;spacingRight=4;overflow=hidden;points=[[0,0.5],[1,0.5]];portConstraint=eastwest;rotatable=0;whiteSpace=wrap;html=1;fontStyle=1;rounded=0;labelBackgroundColor=none;fontColor=#143642;strokeWidth=3;" parent="xMepBUlxYb5cDR9jj_bg-1" vertex="1">
          <mxGeometry y="30" width="160" height="30" as="geometry" />
        </mxCell>
        <mxCell id="xMepBUlxYb5cDR9jj_bg-4" value="cihaz_token" style="text;strokeColor=none;fillColor=none;align=left;verticalAlign=middle;spacingLeft=4;spacingRight=4;overflow=hidden;points=[[0,0.5],[1,0.5]];portConstraint=eastwest;rotatable=0;whiteSpace=wrap;html=1;fontStyle=1;rounded=0;labelBackgroundColor=none;fontColor=#143642;strokeWidth=3;" parent="xMepBUlxYb5cDR9jj_bg-1" vertex="1">
          <mxGeometry y="60" width="160" height="30" as="geometry" />
        </mxCell>
        <mxCell id="xMepBUlxYb5cDR9jj_bg-3" value="rfid_kodu" style="text;strokeColor=none;fillColor=none;align=left;verticalAlign=middle;spacingLeft=4;spacingRight=4;overflow=hidden;points=[[0,0.5],[1,0.5]];portConstraint=eastwest;rotatable=0;whiteSpace=wrap;html=1;fontStyle=1;rounded=0;labelBackgroundColor=none;fontColor=#143642;strokeWidth=3;" parent="xMepBUlxYb5cDR9jj_bg-1" vertex="1">
          <mxGeometry y="90" width="160" height="30" as="geometry" />
        </mxCell>
        <mxCell id="xMepBUlxYb5cDR9jj_bg-5" value="istek_zamani" style="text;strokeColor=none;fillColor=none;align=left;verticalAlign=middle;spacingLeft=4;spacingRight=4;overflow=hidden;points=[[0,0.5],[1,0.5]];portConstraint=eastwest;rotatable=0;whiteSpace=wrap;html=1;fontStyle=1;rounded=0;labelBackgroundColor=none;fontColor=#143642;strokeWidth=3;" parent="xMepBUlxYb5cDR9jj_bg-1" vertex="1">
          <mxGeometry y="120" width="160" height="30" as="geometry" />
        </mxCell>
        <mxCell id="kUtStbo7H4atb7KwHXuE-1" value="sinif_kodu" style="text;strokeColor=none;fillColor=none;align=left;verticalAlign=middle;spacingLeft=4;spacingRight=4;overflow=hidden;points=[[0,0.5],[1,0.5]];portConstraint=eastwest;rotatable=0;whiteSpace=wrap;html=1;fontStyle=1;rounded=0;labelBackgroundColor=none;fontColor=#143642;strokeWidth=3;" parent="xMepBUlxYb5cDR9jj_bg-1" vertex="1">
          <mxGeometry y="150" width="160" height="30" as="geometry" />
        </mxCell>
        <mxCell id="kUtStbo7H4atb7KwHXuE-2" value="ders_kodu" style="text;strokeColor=none;fillColor=none;align=left;verticalAlign=middle;spacingLeft=4;spacingRight=4;overflow=hidden;points=[[0,0.5],[1,0.5]];portConstraint=eastwest;rotatable=0;whiteSpace=wrap;html=1;fontStyle=1;rounded=0;labelBackgroundColor=none;fontColor=#143642;strokeWidth=3;" parent="xMepBUlxYb5cDR9jj_bg-1" vertex="1">
          <mxGeometry y="180" width="160" height="30" as="geometry" />
        </mxCell>
        <mxCell id="kUtStbo7H4atb7KwHXuE-3" value="personel_no" style="text;strokeColor=none;fillColor=none;align=left;verticalAlign=middle;spacingLeft=4;spacingRight=4;overflow=hidden;points=[[0,0.5],[1,0.5]];portConstraint=eastwest;rotatable=0;whiteSpace=wrap;html=1;fontStyle=1;rounded=0;labelBackgroundColor=none;fontColor=#143642;strokeWidth=3;" parent="xMepBUlxYb5cDR9jj_bg-1" vertex="1">
          <mxGeometry y="210" width="160" height="30" as="geometry" />
        </mxCell>
        <mxCell id="xMepBUlxYb5cDR9jj_bg-11" style="edgeStyle=orthogonalEdgeStyle;rounded=0;orthogonalLoop=1;jettySize=auto;html=1;exitX=1;exitY=0.5;exitDx=0;exitDy=0;entryX=1;entryY=0.5;entryDx=0;entryDy=0;strokeColor=#A8201A;fontColor=default;fillColor=#FAE5C7;strokeWidth=2;shadow=1;labelBackgroundColor=none;endArrow=none;endFill=0;startSize=12;endSize=15;" parent="1" source="xMepBUlxYb5cDR9jj_bg-3" target="tSz3dCy00aF6PcJnhEde-48" edge="1">
          <mxGeometry relative="1" as="geometry" />
        </mxCell>
        <mxCell id="VyGpbeNVrSqIv8t4VkZt-2" style="edgeStyle=orthogonalEdgeStyle;rounded=0;orthogonalLoop=1;jettySize=auto;html=1;entryX=1;entryY=0.5;entryDx=0;entryDy=0;strokeColor=#A8201A;fontColor=default;fillColor=#FAE5C7;labelBackgroundColor=none;strokeWidth=3;endArrow=ERmany;endFill=0;startSize=12;endSize=15;" edge="1" parent="1" source="tSz3dCy00aF6PcJnhEde-33" target="tSz3dCy00aF6PcJnhEde-12">
          <mxGeometry relative="1" as="geometry">
            <Array as="points">
              <mxPoint x="50" y="200" />
              <mxPoint x="50" y="-70" />
              <mxPoint x="780" y="-70" />
              <mxPoint x="780" y="235" />
            </Array>
          </mxGeometry>
        </mxCell>
        <mxCell id="VyGpbeNVrSqIv8t4VkZt-3" style="edgeStyle=orthogonalEdgeStyle;rounded=0;orthogonalLoop=1;jettySize=auto;html=1;entryX=0;entryY=0.5;entryDx=0;entryDy=0;strokeColor=#A8201A;fontColor=#143642;fillColor=#FAE5C7;endArrow=ERmany;endFill=0;strokeWidth=3;jumpSize=6;endSize=15;startSize=12;" edge="1" parent="1" source="tSz3dCy00aF6PcJnhEde-32" target="tSz3dCy00aF6PcJnhEde-53">
          <mxGeometry relative="1" as="geometry" />
        </mxCell>
        <mxCell id="VyGpbeNVrSqIv8t4VkZt-4" style="edgeStyle=orthogonalEdgeStyle;rounded=0;orthogonalLoop=1;jettySize=auto;html=1;entryX=1;entryY=0.5;entryDx=0;entryDy=0;strokeColor=#A8201A;fontColor=#143642;fillColor=#FAE5C7;exitX=1;exitY=0.5;exitDx=0;exitDy=0;strokeWidth=3;endArrow=ERmany;endFill=0;startSize=12;endSize=15;" edge="1" parent="1" source="tSz3dCy00aF6PcJnhEde-19" target="tSz3dCy00aF6PcJnhEde-23">
          <mxGeometry relative="1" as="geometry">
            <Array as="points">
              <mxPoint x="760" y="509" />
              <mxPoint x="760" y="325" />
            </Array>
          </mxGeometry>
        </mxCell>
        <mxCell id="VyGpbeNVrSqIv8t4VkZt-5" style="edgeStyle=orthogonalEdgeStyle;rounded=0;orthogonalLoop=1;jettySize=auto;html=1;entryX=1;entryY=0.5;entryDx=0;entryDy=0;strokeColor=#A8201A;fontColor=#143642;fillColor=#FAE5C7;strokeWidth=3;endArrow=ERmany;endFill=0;startSize=12;endSize=15;" edge="1" parent="1" source="tSz3dCy00aF6PcJnhEde-10" target="tSz3dCy00aF6PcJnhEde-16">
          <mxGeometry relative="1" as="geometry" />
        </mxCell>
        <mxCell id="VyGpbeNVrSqIv8t4VkZt-6" style="edgeStyle=orthogonalEdgeStyle;rounded=0;orthogonalLoop=1;jettySize=auto;html=1;entryX=1;entryY=0.5;entryDx=0;entryDy=0;strokeColor=#A8201A;fontColor=#143642;fillColor=#FAE5C7;exitX=1;exitY=0.25;exitDx=0;exitDy=0;strokeWidth=3;endArrow=ERmany;endFill=0;startSize=12;endSize=15;" edge="1" parent="1" source="tSz3dCy00aF6PcJnhEde-9" target="tSz3dCy00aF6PcJnhEde-52">
          <mxGeometry relative="1" as="geometry">
            <Array as="points">
              <mxPoint x="750" y="175" />
              <mxPoint x="750" y="35" />
            </Array>
          </mxGeometry>
        </mxCell>
        <mxCell id="VyGpbeNVrSqIv8t4VkZt-7" style="edgeStyle=orthogonalEdgeStyle;rounded=0;orthogonalLoop=1;jettySize=auto;html=1;entryX=0;entryY=0.5;entryDx=0;entryDy=0;strokeColor=#A8201A;fontColor=#143642;fillColor=#FAE5C7;strokeWidth=3;endArrow=ERmany;endFill=0;startSize=12;endSize=15;" edge="1" parent="1" source="tSz3dCy00aF6PcJnhEde-47" target="xMepBUlxYb5cDR9jj_bg-4">
          <mxGeometry relative="1" as="geometry" />
        </mxCell>
      </root>
    </mxGraphModel>
  </diagram>
</mxfile>
